Coordinates
version=1
nRows=19
nColumns=63
inDegrees=yes

Units are S.I. units (second, meters, Newtons, ...)
If the header above contains a line with 'inDegrees', this indicates whether rotational values are in degrees (yes) or radians (no).

endheader
time	pelvis_tilt	pelvis_list	pelvis_rotation	pelvis_tx	pelvis_ty	pelvis_tz	hip_flexion_r	hip_adduction_r	hip_rotation_r	knee_angle_r	knee_angle_r_beta	ankle_angle_r	subtalar_angle_r	mtp_angle_r	hip_flexion_l	hip_adduction_l	hip_rotation_l	knee_angle_l	knee_angle_l_beta	ankle_angle_l	subtalar_angle_l	mtp_angle_l	L5_S1_Flex_Ext	L5_S1_Lat_Bending	L5_S1_axial_rotation	L4_L5_Flex_Ext	L4_L5_Lat_Bending	L4_L5_axial_rotation	L3_L4_Flex_Ext	L3_L4_Lat_Bending	L3_L4_axial_rotation	L2_L3_Flex_Ext	L2_L3_Lat_Bending	L2_L3_axial_rotation	L1_L2_Flex_Ext	L1_L2_Lat_Bending	L1_L2_axial_rotation	L1_T12_Flex_Ext	L1_T12_Lat_Bending	L1_T12_axial_rotation	Abs_r3	Abs_r2	Abs_r1	Abs_t1	Abs_t2	neck_flexion	neck_bending	neck_rotation	arm_flex_r	arm_add_r	arm_rot_r	elbow_flex_r	pro_sup_r	wrist_flex_r	wrist_dev_r	arm_flex_l	arm_add_l	arm_rot_l	elbow_flex_l	pro_sup_l	wrist_flex_l	wrist_dev_l
0.000000	-0.714741	-4.323866	101.545421	0.126433	0.923659	0.568154	3.403088	-2.878920	-27.568069	16.796245	0.293150	30.159336	3.200370	0.000000	8.113384	1.129404	11.920134	12.311878	0.214883	33.469131	11.788145	0.000000	0.246245	-0.093353	-2.272847	0.457302	-0.124159	-2.414900	0.404556	-0.226977	-2.414900	0.281434	-0.226977	-1.988741	0.228663	-0.190365	-1.846688	0.140704	-0.144603	-1.704635	1.758905	-1.056023	-12.640893	0.000000	0.000000	26.977636	2.178562	4.135035	13.319847	2.121338	39.333408	27.076622	37.353594	-4.821630	9.730443	18.877752	3.480851	59.838222	27.971852	83.246269	-2.410490	-1.757821
0.017857	-1.005285	-4.661961	99.848014	0.127891	0.922900	0.571907	4.844849	-3.511357	-25.910930	18.136822	0.316547	30.946454	3.671501	0.000000	8.856152	1.384038	10.756392	12.827906	0.223889	33.690062	11.731203	0.000000	0.262877	-0.121380	-1.993001	0.488188	-0.161435	-2.117564	0.431880	-0.295123	-2.117564	0.300442	-0.295123	-1.743876	0.244107	-0.247518	-1.619313	0.150208	-0.188018	-1.494751	1.877701	-1.373074	-11.084473	0.000000	0.000000	26.621078	2.660386	4.484169	13.870391	1.835332	41.596440	26.992090	36.550110	-4.743737	9.175008	19.429522	3.534488	60.154683	27.717083	80.974777	-3.420619	-2.588405
0.035714	-1.242383	-4.915079	98.564533	0.129018	0.922339	0.574709	5.941725	-4.020951	-24.684699	19.196375	0.335040	31.581076	4.080855	0.000000	9.410555	1.593944	9.894011	13.228697	0.230884	33.851301	11.684786	0.000000	0.274504	-0.146345	-1.783326	0.509781	-0.194639	-1.894784	0.450982	-0.355824	-1.894784	0.313730	-0.355824	-1.560410	0.254904	-0.298427	-1.448953	0.156852	-0.226689	-1.337495	1.960754	-1.655486	-9.918325	0.000000	0.000000	26.407822	3.013456	4.607923	14.220084	1.647475	43.253138	26.879974	35.782508	-4.689600	8.762046	19.838756	3.595566	60.550663	27.498995	79.276069	-4.047657	-3.071328
0.053571	-1.431509	-5.090317	97.647974	0.129857	0.921962	0.576656	6.727017	-4.418439	-23.839018	20.000237	0.349070	32.075369	4.432027	0.000000	9.790716	1.762683	9.299325	13.519246	0.235955	33.954592	11.643800	0.000000	0.281559	-0.168413	-1.635790	0.522884	-0.223989	-1.738027	0.462574	-0.409480	-1.738027	0.321794	-0.409480	-1.431316	0.261456	-0.343428	-1.329079	0.160883	-0.260872	-1.226842	2.011151	-1.905122	-9.097772	0.000000	0.000000	26.311194	3.250259	4.540819	14.398461	1.535905	44.390171	26.763580	35.048497	-4.649346	8.478368	20.117416	3.655086	60.987385	27.329149	78.080672	-4.337199	-3.254284
0.071429	-1.578140	-5.194776	97.051338	0.130453	0.921757	0.577845	7.234026	-4.714556	-23.323530	20.573740	0.359080	32.441503	4.728613	0.000000	10.010756	1.893815	8.938671	13.704548	0.239189	34.001681	11.603145	0.000000	0.284476	-0.187748	-1.542359	0.528300	-0.249705	-1.638756	0.467366	-0.456491	-1.638756	0.325128	-0.456491	-1.349564	0.264164	-0.382856	-1.253166	0.162550	-0.290822	-1.156769	2.031984	-2.123845	-8.578136	0.000000	0.000000	26.304520	3.383280	4.317377	14.435058	1.478763	45.094208	26.666214	34.345784	-4.613101	8.310786	20.277466	3.704048	61.426071	27.219108	77.319117	-4.334839	-3.184966
0.089286	-1.687752	-5.235552	96.727623	0.130847	0.921710	0.578372	7.496054	-4.920039	-23.087875	20.942219	0.365511	32.691648	4.974209	0.000000	10.084796	1.990904	8.778383	13.789598	0.240674	33.994311	11.557726	0.000000	0.283686	-0.204515	-1.495000	0.526833	-0.272005	-1.588437	0.466068	-0.497259	-1.588437	0.324225	-0.497259	-1.308125	0.263431	-0.417048	-1.214687	0.162098	-0.316794	-1.121250	2.026341	-2.313518	-8.314741	0.000000	0.000000	26.361125	3.425007	3.972116	14.359408	1.454187	45.451916	26.611183	33.672074	-4.570990	8.246112	20.330870	3.733454	61.827947	27.180432	76.921932	-4.086172	-2.911067
0.107143	-1.765821	-5.219745	96.629828	0.131086	0.921809	0.578333	7.546400	-5.045624	-23.081695	21.131006	0.368806	32.837972	5.172411	0.000000	10.026958	2.057509	8.784798	13.779391	0.240496	33.934226	11.502447	0.000000	0.279622	-0.218879	-1.485680	0.519286	-0.291109	-1.578535	0.459391	-0.532183	-1.578535	0.319580	-0.532183	-1.299970	0.259657	-0.446338	-1.207115	0.159776	-0.339044	-1.114260	1.997311	-2.476004	-8.262909	0.000000	0.000000	26.454333	3.387928	3.539557	14.201046	1.440317	45.549965	26.621793	33.025077	-4.513141	8.271159	20.289590	3.734304	62.154236	27.224683	76.819649	-3.636792	-2.480281
0.125000	-1.817823	-5.154452	96.710953	0.131211	0.922041	0.577826	7.418367	-5.102047	-23.254631	21.165435	0.369407	32.892645	5.326815	0.000000	9.851363	2.097193	8.924251	13.678922	0.238742	33.823173	11.432210	0.000000	0.272716	-0.231004	-1.506367	0.506462	-0.307236	-1.600515	0.448046	-0.561664	-1.600515	0.311687	-0.561664	-1.318071	0.253244	-0.471064	-1.223924	0.155830	-0.357826	-1.129776	1.947985	-2.613167	-8.377964	0.000000	0.000000	26.557472	3.284528	3.054221	13.989508	1.415294	45.475023	26.721350	32.402499	-4.429678	8.372738	20.165589	3.697598	62.366160	27.363423	76.942794	-3.032292	-1.940301
0.142857	-1.849233	-5.046773	96.923996	0.131268	0.922393	0.576945	7.145255	-5.100044	-23.556326	21.070839	0.367756	32.867836	5.441016	0.000000	9.572133	2.113516	9.163078	13.493186	0.235501	33.662894	11.341918	0.000000	0.263402	-0.241056	-1.549028	0.489163	-0.320604	-1.645842	0.432743	-0.586102	-1.645842	0.301042	-0.586102	-1.355399	0.244595	-0.491560	-1.258585	0.150508	-0.373395	-1.161771	1.881452	-2.726869	-8.615228	0.000000	0.000000	26.643866	3.127295	2.550628	13.754328	1.357255	45.313757	26.933159	31.802048	-4.310730	8.537661	19.970832	3.614338	62.424945	27.608213	77.221899	-2.318267	-1.338819
0.160714	-1.865529	-4.903806	97.221956	0.131299	0.922851	0.575789	6.760365	-5.050351	-23.936420	20.872552	0.364295	32.775714	5.518612	0.000000	9.203389	2.110041	9.467613	13.227178	0.230858	33.455134	11.226476	0.000000	0.252111	-0.249198	-1.605629	0.468195	-0.331433	-1.705980	0.414193	-0.605899	-1.705980	0.288137	-0.605899	-1.404925	0.234110	-0.508164	-1.304573	0.144056	-0.386007	-1.204221	1.800802	-2.818973	-8.930025	0.000000	0.000000	26.686840	2.928715	2.063298	13.525042	1.244341	45.152837	27.280528	31.221430	-4.146421	8.752740	19.717280	3.475524	62.291813	27.970615	77.587492	-1.540311	-0.723531
0.178571	-1.872186	-4.732649	97.557833	0.131348	0.923403	0.574452	6.296999	-4.963705	-24.344556	20.595906	0.359466	32.628448	5.563198	0.000000	8.759252	2.090328	9.804193	12.885894	0.224901	33.201639	11.080786	0.000000	0.239276	-0.255595	-1.668137	0.444359	-0.339942	-1.772395	0.393106	-0.621454	-1.772395	0.273468	-0.621454	-1.459620	0.222191	-0.521210	-1.355361	0.136722	-0.395917	-1.251103	1.709123	-2.891343	-9.277677	0.000000	0.000000	26.659721	2.701276	1.626752	13.331183	1.054691	45.078932	27.786763	30.658352	-3.926878	9.004787	19.416898	3.272156	61.927988	28.462190	77.970103	-0.744018	-0.142128
0.196429	-1.875537	-4.574373	97.837469	0.131389	0.924011	0.573120	5.847367	-4.864555	-24.701698	20.292612	0.354173	32.402733	5.582348	0.000000	8.280589	2.056960	10.108682	12.435841	0.217046	32.927558	10.962929	0.000000	0.228395	-0.256764	-1.718210	0.424153	-0.341495	-1.825598	0.375231	-0.624295	-1.825598	0.261033	-0.624295	-1.503433	0.212088	-0.523592	-1.396045	0.130505	-0.397727	-1.288657	1.631406	-2.904560	-9.556166	0.000000	0.000000	26.530010	2.405368	1.440750	13.404274	0.677821	45.861918	28.400573	29.674087	-3.427158	8.980652	19.005351	2.962848	61.241811	29.216103	77.817898	-0.093630	0.230869
0.214286	-1.880497	-4.404703	98.050153	0.131520	0.924688	0.571918	5.408144	-4.766596	-24.991509	19.986030	0.348822	32.192047	5.635539	0.000000	7.766898	2.019960	10.357199	11.932169	0.208256	32.592782	10.782556	0.000000	0.216372	-0.255400	-1.756353	0.401825	-0.339682	-1.866126	0.355478	-0.620980	-1.866126	0.247292	-0.620980	-1.536809	0.200923	-0.520812	-1.427037	0.123635	-0.395615	-1.317265	1.545526	-2.889138	-9.768311	0.000000	0.000000	26.227736	2.125125	1.447867	13.630845	0.187204	47.073214	29.152312	28.526891	-2.918124	8.960448	18.595962	2.550872	60.279207	30.139361	77.613496	0.495045	0.358366
0.232143	-1.901756	-4.223981	98.098260	0.131911	0.925427	0.570905	5.018289	-4.664473	-25.037721	19.700611	0.343841	31.992434	5.614999	0.000000	7.212797	1.963909	10.370947	11.361231	0.198291	32.209896	10.659760	0.000000	0.203477	-0.254724	-1.763132	0.377878	-0.338783	-1.873327	0.334293	-0.619336	-1.873327	0.232554	-0.619336	-1.542740	0.188949	-0.519433	-1.432544	0.116267	-0.394568	-1.322349	1.453418	-2.881489	-9.806009	0.000000	0.000000	25.702128	1.894196	1.570422	13.942550	-0.432101	48.691142	30.093153	27.259126	-2.434361	8.980970	18.208554	2.034157	58.956501	31.192132	77.397649	1.001445	0.188240
0.250000	-1.943365	-4.036118	97.982437	0.132550	0.926211	0.570157	4.690373	-4.576472	-24.901930	19.451264	0.339489	31.825626	5.609055	0.000000	6.634366	1.912991	10.306781	10.739506	0.187440	31.755823	10.405581	0.000000	0.190300	-0.255466	-1.739022	0.353406	-0.339770	-1.847711	0.312644	-0.621140	-1.847711	0.217494	-0.621140	-1.521644	0.176713	-0.520946	-1.412955	0.108737	-0.395717	-1.304266	1.359295	-2.889882	-9.671917	0.000000	0.000000	24.928990	1.740687	1.817662	14.234607	-1.185359	50.386750	31.341435	26.376865	-1.948664	9.209133	17.869020	1.418218	57.253800	32.341112	76.998758	1.362215	-0.299171
0.267857	-2.008807	-3.833872	97.658551	0.133509	0.927041	0.569702	4.433065	-4.495454	-24.506408	19.245087	0.335890	31.676965	5.561070	0.000000	6.021146	1.869851	10.202305	10.061521	0.175607	31.222327	9.940929	0.000000	0.175618	-0.258411	-1.676871	0.326141	-0.343686	-1.781676	0.288523	-0.628299	-1.781676	0.200714	-0.628299	-1.467263	0.163079	-0.526951	-1.362458	0.100348	-0.400278	-1.257654	1.254423	-2.923192	-9.326256	0.000000	0.000000	23.909099	1.676695	2.173728	14.460022	-2.098381	52.003451	33.026473	26.228281	-1.410544	9.713049	17.609512	0.714752	55.137827	33.564903	76.231109	1.503402	-1.045399
0.285714	-2.108299	-3.622705	97.108707	0.134818	0.927889	0.569553	4.251720	-4.446165	-23.904093	19.091747	0.333214	31.559023	5.558775	0.000000	5.384555	1.850610	10.072323	9.339893	0.163012	30.617627	9.247049	0.000000	0.160187	-0.265296	-1.576381	0.297483	-0.352843	-1.674905	0.263171	-0.645040	-1.674905	0.183078	-0.645040	-1.379333	0.148750	-0.540991	-1.280809	0.091531	-0.410943	-1.182286	1.144200	-3.001077	-8.767358	0.000000	0.000000	22.666194	1.699977	2.619757	14.646330	-3.203015	53.535596	35.253102	26.971194	-0.772221	10.459243	17.455016	-0.056884	52.530971	34.855844	75.107495	1.364199	-1.940732
0.303571	-2.236747	-3.403716	96.314246	0.136532	0.928728	0.569699	4.152925	-4.404843	-22.993519	18.988336	0.331409	31.438138	5.460688	0.000000	4.737512	1.853049	9.916732	8.599714	0.150093	29.971439	8.323154	0.000000	0.144323	-0.275819	-1.438584	0.268022	-0.366839	-1.528495	0.237108	-0.670627	-1.528495	0.164947	-0.670627	-1.258761	0.134018	-0.562450	-1.168849	0.082466	-0.427244	-1.078938	1.030884	-3.120121	-8.000971	0.000000	0.000000	21.241354	1.804579	3.182932	14.867475	-4.510147	54.919460	38.081968	28.707607	-0.033119	11.406587	17.414683	-0.886663	49.387728	36.225849	73.785027	0.885574	-2.869302
0.321429	-2.395960	-3.172136	95.277756	0.138684	0.929548	0.570117	4.123760	-4.371342	-21.773070	18.927931	0.330355	31.306468	5.249614	0.000000	4.093935	1.879358	9.700647	7.877691	0.137492	29.314663	7.238494	0.000000	0.127664	-0.291155	-1.266183	0.237085	-0.387237	-1.345320	0.209739	-0.707915	-1.345320	0.145907	-0.707915	-1.107910	0.118549	-0.593724	-1.028774	0.072947	-0.451000	-0.949637	0.911891	-3.293608	-7.042130	0.000000	0.000000	19.682723	2.001772	3.866839	15.234840	-6.018036	56.213741	41.489320	31.251916	0.810208	12.404367	17.482428	-1.784835	45.762987	37.691823	72.429799	0.079913	-3.760710
